<?xml version="1.0" encoding="UTF-8" standalone="no" ?>
<!DOCTYPE svg PUBLIC "-//W3C//DTD SVG 1.1//EN" "http://www.w3.org/Graphics/SVG/1.1/DTD/svg11.dtd">
<svg xmlns="http://www.w3.org/2000/svg" xmlns:xlink="http://www.w3.org/1999/xlink" version="1.1" width="256" height="256" viewBox="0 0 256 256" xml:space="preserve">
<desc>Created with Fabric.js 5.2.4</desc>
<defs>
</defs>
<g transform="matrix(1 0 0 1 128 128)" id="fc0e138e-89d8-474c-a5a1-f591643dab1c"  >
<rect style="stroke: none; stroke-width: 1; stroke-dasharray: none; stroke-linecap: butt; stroke-dashoffset: 0; stroke-linejoin: miter; stroke-miterlimit: 4; fill: rgb(255,255,255); fill-rule: nonzero; opacity: 1; visibility: hidden;" vector-effect="non-scaling-stroke"  x="-128" y="-128" rx="0" ry="0" width="256" height="256" />
</g>
<g transform="matrix(Infinity NaN NaN Infinity 0 0)" id="1fbc1e6f-efbf-48c7-a237-7a5d29b0f6b7"  >
</g>
<g transform="matrix(1 0 0 1 128 128)"  >
<g style="" vector-effect="non-scaling-stroke"   >
		<g transform="matrix(1 0 0 1 -8.47 -5.26)"  >
<linearGradient id="SVGID_d_3" gradientUnits="userSpaceOnUse" gradientTransform="matrix(1 0 0 1 0 0)"  x1="68.3016" y1="-0.000005" x2="42.2878" y2="75.259">
<stop offset="0%" style="stop-color:rgb(155,247,99);stop-opacity: 1"/>
<stop offset="100%" style="stop-color:rgb(38,171,91);stop-opacity: 1"/>
</linearGradient>
<path style="stroke: none; stroke-width: 1; stroke-dasharray: none; stroke-linecap: butt; stroke-dashoffset: 0; stroke-linejoin: miter; stroke-miterlimit: 4; fill: url(#SVGID_d_3); fill-rule: nonzero; opacity: 1;" vector-effect="non-scaling-stroke"  transform=" translate(-47.58, -47.57)" d="M 48.9722 7.59977 L 19.363500000000002 19.2411 C 7.786380000000001 23.7929 3.19566 34.9822 7.948880000000003 47.071600000000004 L 18.9189 74.9728 C 23.6587 87.028 34.6407 92.09450000000001 46.2178 87.54270000000001 L 75.8265 75.9013 C 87.4037 71.3495 91.9602 60.173700000000004 87.2204 48.118500000000004 L 76.2504 20.217300000000005 C 71.49719999999999 8.127880000000005 60.5493 3.047960000000007 48.9722 7.599770000000005 z" stroke-linecap="round" />
</g>
		<g transform="matrix(1 0 0 1 -6.27 -5.37)"  >
<path style="stroke: none; stroke-width: 1; stroke-dasharray: none; stroke-linecap: butt; stroke-dashoffset: 0; stroke-linejoin: miter; stroke-miterlimit: 4; fill: rgb(48,173,49); fill-rule: nonzero; opacity: 0.5;" vector-effect="non-scaling-stroke"  transform=" translate(-49.78, -47.46)" d="M 51.7517 19.8623 L 29.5761 28.5387 C 21.532400000000003 31.6859 18.4695 37.6596 21.2459 44.7557 L 30.6492 68.7894 C 33.4712 76.0018 39.7384 78.21770000000001 47.782 75.0705 L 69.9576 66.3942 C 78.1309 63.1963 81.098 57.367399999999996 78.2761 50.155 L 68.8727 26.1213 C 66.0963 19.0252 59.925 16.664500000000004 51.7517 19.8623 z" stroke-linecap="round" />
</g>
		<g transform="matrix(1 0 0 1 12.26 9.19)"  >
<path style="stroke: none; stroke-width: 1; stroke-dasharray: none; stroke-linecap: butt; stroke-dashoffset: 0; stroke-linejoin: miter; stroke-miterlimit: 4; fill: rgb(114,220,96); fill-opacity: 0.35; fill-rule: nonzero; opacity: 1;" vector-effect="non-scaling-stroke"  transform=" translate(-68.31, -62.02)" d="M 84.2337 25.3211 L 52.4187 25.3211 C 39.9789 25.3211 31.6123 34.0547 31.6123 47.0449 L 31.6123 77.0252 C 31.6123 89.9787 39.9789 98.7122 52.4187 98.7122 L 84.2337 98.7122 C 96.6735 98.7122 105.003 89.9787 105.003 77.0252 L 105.003 47.0449 C 105.003 34.0547 96.6735 25.321099999999998 84.2337 25.321099999999998 z" stroke-linecap="round" />
</g>
		<g transform="matrix(1 0 0 1 12.26 9.19)"  >
<linearGradient id="SVGID_e_4" gradientUnits="userSpaceOnUse" gradientTransform="matrix(1 0 0 1 0 0)"  x1="43.295" y1="33.8713" x2="90.1107" y2="91.8537">
<stop offset="0%" style="stop-color:rgb(255,255,255);stop-opacity: 0.25"/>
<stop offset="100%" style="stop-color:rgb(255,255,255);stop-opacity: 0"/>
</linearGradient>
<path style="stroke: none; stroke-width: 1; stroke-dasharray: none; stroke-linecap: butt; stroke-dashoffset: 0; stroke-linejoin: miter; stroke-miterlimit: 4; fill: url(#SVGID_e_4); fill-rule: nonzero; opacity: 1;" vector-effect="non-scaling-stroke"  transform=" translate(-68.31, -62.02)" d="M 84.2337 26.3211 C 84.786 26.3211 85.2337 25.8734 85.2337 25.3211 C 85.2337 24.768800000000002 84.786 24.3211 84.2337 24.3211 z M 84.2337 24.3211 C 83.6815 24.3211 83.2337 24.768800000000002 83.2337 25.3211 C 83.2337 25.8734 83.6815 26.3211 84.2337 26.3211 z M 84.2337 24.3211 L 52.4187 24.3211 L 52.4187 26.3211 L 84.2337 26.3211 z M 52.4187 24.3211 C 45.956 24.3211 40.4834 26.595200000000002 36.6284 30.6199 C 32.777 34.6409 30.612299999999998 40.333 30.612299999999998 47.0449 L 32.6123 47.0449 C 32.6123 40.7665 34.6309 35.5968 38.0727 32.0034 C 41.510999999999996 28.4137 46.441599999999994 26.3211 52.4187 26.3211 z M 30.6123 47.0449 L 30.6123 77.0252 L 32.612300000000005 77.0252 L 32.612300000000005 47.0449 z M 30.6123 77.0252 C 30.6123 83.7194 32.7775 89.4024 36.6288 93.41839999999999 C 40.4837 97.4382 45.9561 99.7122 52.4187 99.7122 L 52.4187 97.7122 C 46.441500000000005 97.7122 41.5107 95.61959999999999 38.0723 92.0341 C 34.6304 88.445 32.6123 83.28439999999999 32.6123 77.0252 z M 52.4187 99.7122 L 84.2337 99.7122 L 84.2337 97.7122 L 52.4187 97.7122 z M 84.2337 99.7122 C 90.6966 99.7122 96.1603 97.438 100.006 93.41749999999999 C 103.848 89.401 106.003 83.7182 106.003 77.02519999999998 L 104.003 77.02519999999998 C 104.003 83.28569999999999 101.994 88.44639999999998 98.5609 92.03499999999998 C 95.1319 95.61969999999998 90.2107 97.71219999999998 84.2337 97.71219999999998 z M 106.003 77.0252 L 106.003 47.0449 L 104.003 47.0449 L 104.003 77.0252 z M 106.003 47.0449 C 106.003 40.334199999999996 103.849 34.6422 100.007 30.6209 C 96.1606 26.595399999999998 90.6966 24.321099999999998 84.2337 24.321099999999998 L 84.2337 26.321099999999998 C 90.2107 26.321099999999998 95.13159999999999 28.4136 98.5605 32.0025 C 101.99300000000001 35.5954 104.003 40.765299999999996 104.003 47.0449 z" stroke-linecap="round" />
</g>
		<g transform="matrix(1 0 0 1 12.11 9.04)"  >
<linearGradient id="SVGID_f_5" gradientUnits="userSpaceOnUse" gradientTransform="matrix(1 0 0 1 0 0)"  x1="86.301" y1="55.7708" x2="39.4029" y2="59.1567">
<stop offset="0%" style="stop-color:rgb(255,255,255);stop-opacity: 1"/>
<stop offset="100%" style="stop-color:rgb(255,255,255);stop-opacity: 0.2"/>
</linearGradient>
<path style="stroke: none; stroke-width: 1; stroke-dasharray: none; stroke-linecap: butt; stroke-dashoffset: 0; stroke-linejoin: miter; stroke-miterlimit: 4; fill: url(#SVGID_f_5); fill-rule: evenodd; opacity: 1;" vector-effect="non-scaling-stroke"  transform=" translate(-68.16, -61.87)" d="M 86.5463 71.4158 C 88.0655 71.4158 89.2985 70.1828 89.2985 68.6636 L 89.2985 61.8676 C 89.2985 60.348400000000005 88.0655 59.1154 86.5463 59.1154 L 65.6592 59.1154 C 64.4702 55.2 60.866699999999994 52.323100000000004 56.566 52.323100000000004 C 51.3039 52.323100000000004 47.0215 56.6054 47.0215 61.8676 C 47.0215 67.13340000000001 51.303900000000006 71.4158 56.566 71.4158 C 60.8667 71.4158 64.4702 68.53880000000001 65.6592 64.61970000000001 L 73.4093 64.61970000000001 L 73.4093 68.6636 C 73.4093 70.1828 74.6422 71.4158 76.1614 71.4158 C 77.6806 71.4158 78.9136 70.1828 78.9136 68.6636 L 78.9136 64.61970000000001 L 83.7941 64.61970000000001 L 83.7941 68.6636 C 83.7941 70.1828 85.0271 71.4158 86.5463 71.4158 z M 52.5221 61.867200000000004 C 52.5221 59.636100000000006 54.3385 57.8233 56.5659 57.8233 C 58.7934 57.8233 60.6098 59.636100000000006 60.6098 61.867200000000004 C 60.6098 64.0946 58.7934 65.90740000000001 56.5659 65.90740000000001 C 54.338499999999996 65.90740000000001 52.5221 64.09460000000001 52.5221 61.86720000000001 z" stroke-linecap="round" />
</g>
		<g transform="matrix(1 0 0 1 12.11 9.04)"  >
<linearGradient id="SVGID_g_6" gradientUnits="userSpaceOnUse" gradientTransform="matrix(1 0 0 1 0 0)"  x1="51.5756" y1="58.7277" x2="87.4704" y2="59.1665">
<stop offset="0%" style="stop-color:rgb(255,255,255);stop-opacity: 0.5"/>
<stop offset="100%" style="stop-color:rgb(255,255,255);stop-opacity: 0"/>
</linearGradient>
<path style="stroke: none; stroke-width: 1; stroke-dasharray: none; stroke-linecap: butt; stroke-dashoffset: 0; stroke-linejoin: miter; stroke-miterlimit: 4; fill: url(#SVGID_g_6); fill-rule: nonzero; opacity: 1;" vector-effect="non-scaling-stroke"  transform=" translate(-68.16, -61.87)" d="M 65.6592 59.1154 L 65.4678 59.173500000000004 L 65.51089999999999 59.315400000000004 L 65.6592 59.315400000000004 z M 65.6592 64.6197 L 65.6592 64.41969999999999 L 65.5108 64.41969999999999 L 65.4678 64.56169999999999 z M 73.4093 64.6197 L 73.6093 64.6197 L 73.6093 64.41969999999999 L 73.4093 64.41969999999999 z M 78.9136 64.6197 L 78.9136 64.41969999999999 L 78.7136 64.41969999999999 L 78.7136 64.6197 z M 83.7941 64.6197 L 83.9941 64.6197 L 83.9941 64.41969999999999 L 83.7941 64.41969999999999 z M 89.0984 68.66359999999999 C 89.0984 70.07229999999998 87.955 71.21579999999999 86.5463 71.21579999999999 L 86.5463 71.6158 C 88.1759 71.6158 89.4985 70.29329999999999 89.4985 68.66359999999999 z M 89.0984 61.86759999999999 L 89.0984 68.66359999999999 L 89.49849999999999 68.66359999999999 L 89.49849999999999 61.86759999999999 z M 86.5463 59.31539999999999 C 87.955 59.31539999999999 89.0984 60.45879999999999 89.0984 61.86759999999999 L 89.49849999999999 61.86759999999999 C 89.49849999999999 60.23789999999999 88.1759 58.91539999999999 86.54629999999999 58.91539999999999 z M 65.6592 59.31539999999999 L 86.5463 59.31539999999999 L 86.5463 58.91539999999999 L 65.6592 58.91539999999999 z M 56.566 52.52309999999999 C 60.7744 52.52309999999999 64.3032 55.33829999999999 65.4678 59.17349999999999 L 65.8505 59.05729999999999 C 64.6373 55.06169999999999 60.958999999999996 52.123099999999994 56.565999999999995 52.123099999999994 z M 47.221500000000006 61.867599999999996 C 47.221500000000006 56.7159 51.414300000000004 52.5231 56.566 52.5231 L 56.566 52.1231 C 51.193400000000004 52.1231 46.8215 56.495000000000005 46.8215 61.8676 z M 56.566 71.2158 C 51.4144 71.2158 47.221500000000006 67.023 47.221500000000006 61.8676 L 46.82150000000001 61.8676 C 46.82150000000001 67.24380000000001 51.19340000000001 71.61580000000001 56.56600000000001 71.61580000000001 z M 65.4678 64.5617 C 64.3032 68.4006 60.7744 71.2158 56.565999999999995 71.2158 L 56.565999999999995 71.61580000000001 C 60.95909999999999 71.61580000000001 64.6373 68.67710000000001 65.8506 64.6778 z M 73.4093 64.4197 L 65.6592 64.4197 L 65.6592 64.81970000000001 L 73.4093 64.81970000000001 z M 73.6093 68.6636 L 73.6093 64.61970000000001 L 73.2093 64.61970000000001 L 73.2093 68.6636 z M 76.1614 71.2158 C 74.7527 71.2158 73.6093 70.0723 73.6093 68.6636 L 73.2093 68.6636 C 73.2093 70.2933 74.5318 71.61580000000001 76.1614 71.61580000000001 z M 78.7136 68.6636 C 78.7136 70.0723 77.5702 71.2158 76.1614 71.2158 L 76.1614 71.61580000000001 C 77.7911 71.61580000000001 79.1136 70.2933 79.1136 68.6636 z M 78.7136 64.61970000000001 L 78.7136 68.6636 L 79.1136 68.6636 L 79.1136 64.61970000000001 z M 83.7941 64.4197 L 78.9136 64.4197 L 78.9136 64.81970000000001 L 83.7941 64.81970000000001 z M 83.9941 68.6636 L 83.9941 64.61970000000001 L 83.5941 64.61970000000001 L 83.5941 68.6636 z M 86.5463 71.2158 C 85.1375 71.2158 83.9941 70.0723 83.9941 68.6636 L 83.5941 68.6636 C 83.5941 70.2933 84.9166 71.61580000000001 86.5463 71.61580000000001 z M 56.5659 57.6233 C 54.2282 57.6233 52.3221 59.5255 52.3221 61.8672 L 52.7221 61.8672 C 52.7221 59.7467 54.448899999999995 58.0233 56.5659 58.0233 z M 60.809799999999996 61.8672 C 60.809799999999996 59.525499999999994 58.90369999999999 57.6233 56.5659 57.6233 L 56.5659 58.0233 C 58.683 58.0233 60.4098 59.7467 60.4098 61.8672 z M 56.5659 66.1074 C 58.9036 66.1074 60.809799999999996 64.2053 60.809799999999996 61.8672 L 60.4098 61.8672 C 60.4098 63.9839 58.683099999999996 65.70739999999999 56.5659 65.70739999999999 z M 52.3221 61.8672 C 52.3221 64.2053 54.2283 66.1074 56.5659 66.1074 L 56.5659 65.70739999999999 C 54.4487 65.70739999999999 52.7221 63.98389999999999 52.7221 61.86719999999999 z" stroke-linecap="round" />
</g>
</g>
</g>
</svg>